<?xml version="1.0" encoding="utf-8"?>
<!-- Generator: Adobe Illustrator 27.4.1, SVG Export Plug-In . SVG Version: 6.00 Build 0)  -->
<svg version="1.1" id="file-reload" xmlns="http://www.w3.org/2000/svg" xmlns:xlink="http://www.w3.org/1999/xlink" x="0px"
	 y="0px" viewBox="0 0 800 800" style="enable-background:new 0 0 800 800;" xml:space="preserve">
<style type="text/css">
	.st0{fill:#805e51;}
	.st1{fill:#2CA9BC;}
</style>
<path id="primary" class="st0" d="M537.2,700c34.5,0,62.4-28.1,62.2-62.6c-0.3-37.7,0.7-24.7,0.7-298.1V247
	c-0.1-17.7-7.1-34.6-19.7-47L466.7,86.3c-12.4-12.5-29.3-19.6-47-19.7H133.3c-36.8,0-66.7,29.8-66.7,66.7v500
	c0,36.8,29.8,66.7,66.7,66.7h261H537.2z"/>
<path id="secondary" class="st1" d="M652.8,126c-28,0-50.6,22.6-50.6,50.6v64.2c-118.8-96.9-293.8-79.2-390.7,39.7
	s-79.2,293.8,39.7,390.7c118.7,96.9,293.5,79.2,390.5-39.4c17.6-21.8,14.2-53.8-7.6-71.3c-21.8-17.6-53.8-14.2-71.3,7.6l0,0
	c-33.8,41.1-84.4,64.6-137.6,63.7c-97.7,0.2-177.3-78.9-177.6-176.6S326.3,278,424.1,277.8c46.5-0.1,91.2,18,124.4,50.6h-98.1
	c-28,0-50.6,22.6-50.6,50.6c0,28,22.6,50.6,50.6,50.6h202.4c28,0,50.6-22.6,50.6-50.6V176.6C703.3,148.6,680.6,126,652.8,126z"/>
</svg>
